<svg width="27" height="50" viewBox="0 0 27 50" fill="none" xmlns="http://www.w3.org/2000/svg">
<path d="M1.77022 26.5651H7.03262V48.2298C7.03262 48.6575 7.3792 49.0041 7.80694 49.0041H16.7297C17.1574 49.0041 17.504 48.6575 17.504 48.2298V26.6672H23.5536C23.947 26.6672 24.2779 26.372 24.3229 25.9813L25.2417 18.0056C25.2669 17.7861 25.1974 17.5663 25.0506 17.4018C24.9036 17.237 24.6934 17.1427 24.4726 17.1427H17.5042V12.1431C17.5042 10.6359 18.3156 9.87168 19.9163 9.87168C20.1444 9.87168 24.4724 9.87168 24.4724 9.87168C24.9001 9.87168 25.2467 9.525 25.2467 9.09736V1.77617C25.2467 1.34844 24.9001 1.00186 24.4724 1.00186H18.1934C18.1492 0.999707 18.051 0.996094 17.906 0.996094C16.8165 0.996094 13.0296 1.20996 10.0382 3.96191C6.72373 7.01152 7.18447 10.6629 7.29453 11.296V17.1424H1.77002C1.34229 17.1424 0.995705 17.489 0.995705 17.9167V25.7906C0.9959 26.2185 1.34248 26.5651 1.77022 26.5651Z" fill="#FDECCC"/>
<path d="M16.7297 50H7.80703C6.83086 50 6.03672 49.2058 6.03672 48.2297V27.561H1.77031C0.79414 27.561 0 26.7668 0 25.7905V17.9166C0 16.9404 0.794238 16.1463 1.77031 16.1463H6.29873V11.3768C6.14912 10.4121 5.80898 6.49971 9.36377 3.22881C12.6205 0.23291 16.7255 0 17.906 0C18.052 0 18.1562 0.00322266 18.2161 0.00576172H24.4725C25.4486 0.00576172 26.2428 0.799902 26.2428 1.77607V9.09707C26.2428 10.0732 25.4485 10.8674 24.4725 10.8674H19.9164C18.7259 10.8674 18.5002 11.3156 18.5002 12.1428V16.1464H24.4725C24.9766 16.1464 25.4581 16.3622 25.7938 16.7385C26.1294 17.1149 26.2887 17.6183 26.231 18.1193L25.3121 26.0951C25.2093 26.989 24.4532 27.6631 23.5534 27.6631H18.4998V48.2296C18.5 49.2058 17.7058 50 16.7297 50ZM8.02861 48.008H16.5079V26.6672C16.5079 26.1171 16.9539 25.6712 17.5039 25.6712H23.3559L24.2236 18.1387H17.5042C16.9542 18.1387 16.5082 17.6928 16.5082 17.1427V12.1431C16.5082 10.0972 17.7823 8.87568 19.9165 8.87568H24.251V1.99785H18.1938C18.1773 1.99785 18.1609 1.99746 18.1445 1.99668C18.1293 1.9959 18.046 1.99219 17.9061 1.99219C16.9078 1.99219 13.4388 2.18711 10.7126 4.69502C7.7958 7.37881 8.17109 10.5224 8.27607 11.1254C8.28584 11.1817 8.29072 11.2389 8.29072 11.296V17.1424C8.29072 17.6925 7.84473 18.1384 7.29473 18.1384H1.99189V25.569H7.03262C7.58262 25.569 8.02861 26.0149 8.02861 26.565V48.008Z" fill="#16110D"/>
<path d="M10.0336 36.0557C9.48359 36.0557 9.0376 35.6098 9.0376 35.0597V34.5617C9.0376 34.0116 9.48359 33.5657 10.0336 33.5657C10.5836 33.5657 11.0296 34.0116 11.0296 34.5617V35.0597C11.0297 35.6098 10.5836 36.0557 10.0336 36.0557Z" fill="#16110D"/>
<path d="M10.0336 46.8127C9.48359 46.8127 9.0376 46.3668 9.0376 45.8167V38.247C9.0376 37.6969 9.48359 37.251 10.0336 37.251C10.5836 37.251 11.0296 37.6969 11.0296 38.247V45.8167C11.0297 46.3667 10.5836 46.8127 10.0336 46.8127Z" fill="#16110D"/>
</svg>
