<svg width="50" height="50" viewBox="0 0 50 50" fill="none" xmlns="http://www.w3.org/2000/svg">
<path d="M35.0265 49.0041H14.8485C7.21017 49.0041 0.996014 42.7898 0.996014 35.1517V14.8486C0.996014 7.21025 7.21017 0.996094 14.8485 0.996094H35.0265C42.6648 0.996094 48.8789 7.21025 48.8789 14.8486V35.1517C48.8789 42.7898 42.6647 49.0041 35.0265 49.0041ZM14.8485 6.68877C10.349 6.68877 6.68859 10.3492 6.68859 14.8486V35.1517C6.68859 39.6511 10.349 43.3115 14.8485 43.3115H35.0265C39.5259 43.3115 43.1863 39.6511 43.1863 35.1517V14.8486C43.1863 10.3492 39.5259 6.68877 35.0265 6.68877H14.8485Z" fill="#FDECCC"/>
<path d="M24.9374 36.877C18.3883 36.877 13.0603 31.5489 13.0603 25C13.0603 18.4508 18.3884 13.1228 24.9374 13.1228C31.4864 13.1228 36.8145 18.4509 36.8145 25C36.8146 31.549 31.4865 36.877 24.9374 36.877ZM24.9374 18.6757C21.4503 18.6757 18.6132 21.5127 18.6132 25C18.6132 28.4872 21.4502 31.3242 24.9374 31.3242C28.4246 31.3242 31.2616 28.4872 31.2616 25C31.2616 21.5127 28.4245 18.6757 24.9374 18.6757Z" fill="#FDECCC"/>
<path d="M37.0941 14.9403C35.9379 14.9403 34.9972 13.9997 34.9972 12.8435C34.9972 11.6872 35.9379 10.7466 37.0941 10.7466C38.2503 10.7466 39.1909 11.6872 39.1909 12.8435C39.1909 13.9997 38.2504 14.9403 37.0941 14.9403Z" fill="#FDECCC"/>
<path d="M35.0265 50H14.8484C6.66094 50 0 43.3391 0 35.1515V14.8485C0 6.66094 6.66094 0 14.8484 0H35.0265C43.2139 0 49.8749 6.66094 49.8749 14.8485V35.1517C49.8748 43.3391 43.2139 50 35.0265 50ZM14.8484 1.99199C7.75928 1.99199 1.99199 7.75928 1.99199 14.8484V35.1516C1.99199 42.2406 7.75928 48.0079 14.8484 48.0079H35.0265C42.1155 48.0079 47.8828 42.2406 47.8828 35.1515V14.8485C47.8828 7.75937 42.1155 1.99209 35.0265 1.99209H14.8484V1.99199ZM35.0265 44.3073H14.8484C9.7998 44.3073 5.69258 40.2001 5.69258 35.1516V14.8485C5.69258 9.7999 9.7998 5.69277 14.8484 5.69277H35.0265C40.075 5.69277 44.1822 9.8 44.1822 14.8485V35.1517C44.1822 40.2001 40.075 44.3073 35.0265 44.3073ZM14.8484 7.68467C10.8982 7.68467 7.68457 10.8983 7.68457 14.8484V35.1516C7.68457 39.1017 10.8982 42.3153 14.8484 42.3153H35.0265C38.9766 42.3153 42.1902 39.1017 42.1902 35.1516V14.8485C42.1902 10.8984 38.9766 7.68477 35.0265 7.68477H14.8484V7.68467Z" fill="#130E0C"/>
<path d="M24.9374 37.8731C17.8391 37.8731 12.0643 32.0983 12.0643 25C12.0643 17.9016 17.8392 12.1267 24.9374 12.1267C32.0356 12.1267 37.8105 17.9016 37.8105 25C37.8105 32.0983 32.0357 37.8731 24.9374 37.8731ZM24.9374 14.1188C18.9376 14.1188 14.0563 19 14.0563 25C14.0563 30.9998 18.9376 35.881 24.9374 35.881C30.9372 35.881 35.8185 30.9998 35.8185 25C35.8185 19 30.9373 14.1188 24.9374 14.1188ZM24.9374 32.3202C20.9011 32.3202 17.6172 29.0363 17.6172 25C17.6172 20.9636 20.9011 17.6797 24.9374 17.6797C28.9737 17.6797 32.2576 20.9636 32.2576 25C32.2576 29.0363 28.9738 32.3202 24.9374 32.3202ZM24.9374 19.6717C21.9994 19.6717 19.6092 22.062 19.6092 25C19.6092 27.9379 21.9994 30.3282 24.9374 30.3282C27.8754 30.3282 30.2656 27.9379 30.2656 25C30.2656 22.0619 27.8754 19.6717 24.9374 19.6717Z" fill="#130E0C"/>
<path d="M37.0941 15.9363C35.3887 15.9363 34.0011 14.5489 34.0011 12.8433C34.0011 11.1377 35.3887 9.75024 37.0941 9.75024C38.7995 9.75024 40.1871 11.1378 40.1871 12.8433C40.1871 14.5488 38.7995 15.9363 37.0941 15.9363ZM37.0941 11.7423C36.4871 11.7423 35.9932 12.2362 35.9932 12.8433C35.9932 13.4503 36.4871 13.9442 37.0941 13.9442C37.7012 13.9442 38.195 13.4503 38.195 12.8433C38.1951 12.2363 37.7013 11.7423 37.0941 11.7423Z" fill="#130E0C"/>
<path d="M23.3438 47.2112H13.9812C13.4311 47.2112 12.9852 46.7653 12.9852 46.2152C12.9852 45.6651 13.4311 45.2192 13.9812 45.2192H23.3438C23.8939 45.2192 24.3397 45.6651 24.3397 46.2152C24.3397 46.7653 23.8939 47.2112 23.3438 47.2112Z" fill="#130E0C"/>
<path d="M27.1286 47.2112H26.531C25.981 47.2112 25.535 46.7653 25.535 46.2152C25.535 45.6651 25.981 45.2192 26.531 45.2192H27.1286C27.6786 45.2192 28.1246 45.6651 28.1246 46.2152C28.1246 46.7653 27.6787 47.2112 27.1286 47.2112Z" fill="#130E0C"/>
</svg>
