<svg width="25" height="25" viewBox="0 0 25 25" fill="none" xmlns="http://www.w3.org/2000/svg">
<path d="M10.488 24.32C9.208 24.32 8.06667 24.032 7.064 23.456C6.06133 22.88 5.272 22.0907 4.696 21.088V24H0.952V0.639999H5.24V10.176C5.83733 9.17333 6.616 8.384 7.576 7.808C8.55733 7.232 9.69867 6.944 11 6.944C12.088 6.944 13.08 7.17867 13.976 7.648C14.872 8.096 15.64 8.72533 16.28 9.536C16.9413 10.3467 17.4427 11.2747 17.784 12.32C18.1467 13.3653 18.328 14.4853 18.328 15.68C18.328 16.8747 18.1253 17.9947 17.72 19.04C17.336 20.0853 16.792 21.0133 16.088 21.824C15.384 22.6133 14.552 23.232 13.592 23.68C12.6533 24.1067 11.6187 24.32 10.488 24.32ZM9.304 20.672C9.98667 20.672 10.6053 20.544 11.16 20.288C11.736 20.0107 12.2267 19.648 12.632 19.2C13.0587 18.752 13.3787 18.2293 13.592 17.632C13.8267 17.0133 13.944 16.3733 13.944 15.712C13.944 14.7947 13.752 13.952 13.368 13.184C13.0053 12.3947 12.4933 11.7653 11.832 11.296C11.192 10.8267 10.4347 10.592 9.56 10.592C8.94133 10.592 8.344 10.7413 7.768 11.04C7.21333 11.3173 6.712 11.7013 6.264 12.192C5.83733 12.6827 5.496 13.2373 5.24 13.856V17.856C5.368 18.2827 5.57067 18.6667 5.848 19.008C6.14667 19.3493 6.488 19.648 6.872 19.904C7.256 20.1387 7.65067 20.3307 8.056 20.48C8.48267 20.608 8.89867 20.672 9.304 20.672ZM21.1373 24V19.392H24.6573V24H21.1373Z" fill="#358856"/>
</svg>
