<svg width="40" height="50" viewBox="0 0 40 50" fill="none" xmlns="http://www.w3.org/2000/svg">
<path d="M33.9628 5.91543C30.6458 2.74316 26.0553 0.996094 21.0371 0.996094C13.3715 0.996094 8.65697 4.12627 6.05171 6.75215C2.84092 9.98809 0.999718 14.2849 0.999718 18.5408C0.999718 23.8846 3.24344 27.986 7.00075 29.5118C7.25298 29.6148 7.50688 29.6667 7.75568 29.6667C8.54825 29.6667 9.17643 29.15 9.39396 28.3213C9.52081 27.8458 9.81471 26.6728 9.94244 26.1636C10.2159 25.1579 9.99489 24.6742 9.39847 23.9739C8.31171 22.6931 7.80577 21.1782 7.80577 19.2069C7.80577 13.3515 12.1824 7.12842 20.2945 7.12842C26.7309 7.12842 30.7292 10.7727 30.7292 16.639C30.7292 20.3408 29.9288 23.7691 28.4749 26.2927C27.4646 28.0462 25.6881 30.1363 22.961 30.1363C21.7817 30.1363 20.7223 29.6537 20.0537 28.8124C19.4223 28.017 19.2141 26.9897 19.4681 25.9188C19.755 24.7089 20.1462 23.4469 20.5248 22.2269C21.2154 19.9985 21.8681 17.8939 21.8681 16.2147C21.8681 13.3426 20.0956 11.4128 17.4579 11.4128C14.1058 11.4128 11.4796 14.8045 11.4796 19.1344C11.4796 21.2578 12.0461 22.8461 12.3025 23.4561C11.8802 25.2384 9.37053 35.8353 8.8944 37.8335C8.61913 39 6.96095 48.2132 9.70551 48.9479C12.7893 49.7733 15.5457 40.8002 15.8262 39.7862C16.0536 38.9616 16.8492 35.8435 17.3368 33.9266C18.8255 35.3551 21.2224 36.3207 23.5547 36.3207C27.9514 36.3207 31.9056 34.3497 34.6888 30.7711C37.388 27.3001 38.8747 22.4622 38.8747 17.1494C38.8749 12.9958 37.0844 8.90107 33.9628 5.91543Z" fill="#FDECCC"/>
<path d="M10.1208 50C9.89666 50 9.67178 49.9698 9.44611 49.9095C7.75303 49.4563 7.0081 47.3633 7.16867 43.511C7.2817 40.7991 7.7992 38.1225 7.92115 37.6053C8.17495 36.5396 9.00919 33.0204 9.79471 29.7052C9.30103 30.3078 8.57737 30.6625 7.75567 30.6625C7.37581 30.6625 6.99427 30.5854 6.62166 30.4332C2.47595 28.7497 0 24.3036 0 18.5406C0 14.0245 1.94659 9.47266 5.3406 6.05176C8.07986 3.29092 13.0268 0 21.0371 0C26.3146 0 31.1509 1.84561 34.6551 5.19678C34.6552 5.19678 34.6552 5.19678 34.6552 5.19678C37.9723 8.36943 39.8747 12.7259 39.8747 17.1491C39.8747 22.6817 38.3137 27.7359 35.4794 31.3808C32.5027 35.2084 28.2677 37.3164 23.5549 37.3164C21.5807 37.3164 19.5443 36.7001 17.9283 35.6543C17.4491 37.532 16.961 39.4311 16.7905 40.0498C16.5771 40.8213 15.7888 43.3012 14.7158 45.4932C13.2495 48.4885 11.7067 50 10.1208 50ZM17.458 12.4085C14.6662 12.4085 12.4794 15.3628 12.4794 19.1341C12.4794 21.0871 13.0007 22.5379 13.2247 23.071C13.3063 23.265 13.3241 23.4798 13.2756 23.6845L13.0392 24.6822C12.2862 27.861 10.286 36.3051 9.86715 38.0631C9.71511 38.7079 9.26525 41.2207 9.16643 43.5936C9.03027 46.8622 9.62923 47.8958 9.96499 47.9857C10.498 48.1282 11.5909 47.3323 12.9186 44.62C14.112 42.1822 14.8554 39.5472 14.8625 39.5213C15.0301 38.9134 15.5508 36.8938 16.3678 33.6816C16.4553 33.3376 16.72 33.0659 17.0626 32.9686C17.4052 32.8713 17.774 32.9628 18.0305 33.209C19.3698 34.494 21.5382 35.3245 23.5548 35.3245C27.6355 35.3245 31.309 33.4906 33.8986 30.1608C36.4628 26.8634 37.875 22.2425 37.875 17.1491C37.875 13.2653 36.1967 9.43262 33.2702 6.63359C30.1403 3.64033 25.7958 1.9918 21.0371 1.9918C13.7169 1.9918 9.23417 4.96104 6.76282 7.45195C3.73584 10.5028 1.99962 14.5444 1.99962 18.5404C1.99962 23.4649 4.01033 27.2215 7.37836 28.5892C7.5108 28.6433 7.63726 28.6703 7.75587 28.6703C8.2024 28.6703 8.36797 28.2935 8.42689 28.0688C8.546 27.6225 8.81921 26.5334 8.95047 26.0101L8.97272 25.9215C8.97429 25.9152 8.97596 25.9088 8.97763 25.9025C9.14536 25.2862 9.07418 25.1317 8.63628 24.6179C7.38728 23.1455 6.80606 21.4266 6.80606 19.2065C6.80606 15.9351 8.06928 12.688 10.2716 10.2979C12.023 8.39746 15.1834 6.13203 20.2944 6.13203C23.7065 6.13203 26.5785 7.10596 28.6003 8.94863C30.6471 10.8141 31.7289 13.4732 31.7289 16.6386C31.7289 20.5118 30.8812 24.1163 29.342 26.7881C27.7046 29.63 25.498 31.1319 22.9609 31.1319C21.4744 31.1319 20.129 30.5116 19.2697 29.4302C18.4444 28.3908 18.1693 27.0624 18.495 25.6894C18.7909 24.4421 19.1867 23.1662 19.5695 21.9323C20.2384 19.7737 20.8682 17.7414 20.8682 16.2144C20.8683 13.9023 19.5298 12.4085 17.458 12.4085ZM17.458 10.4165C20.6433 10.4165 22.8679 12.8006 22.8679 16.2144C22.8679 18.0419 22.195 20.2137 21.4825 22.5129C21.107 23.7227 20.7215 24.9658 20.4412 26.1474C20.2563 26.9267 20.3936 27.6345 20.8379 28.1941C21.3154 28.7952 22.0895 29.14 22.9611 29.14C25.2095 29.14 26.7291 27.3218 27.6079 25.7965C28.9761 23.4217 29.7295 20.1693 29.7295 16.6386C29.7295 11.307 26.2024 8.12402 20.2946 8.12402C12.8323 8.12402 8.80578 13.8341 8.80578 19.2065C8.80578 20.9528 9.22417 22.2247 10.1622 23.3306C10.5478 23.783 10.8367 24.2225 10.972 24.7363C11.0153 24.5537 11.0558 24.3825 11.0932 24.2245L11.2576 23.5309C10.9554 22.7276 10.48 21.1444 10.48 19.1339C10.4798 14.2458 13.5451 10.4165 17.458 10.4165Z" fill="#130E0C"/>
<path d="M16.8385 25.8951C16.7447 25.8951 16.6491 25.8819 16.5546 25.854C16.0251 25.6981 15.7228 25.144 15.8795 24.6164L16.9792 20.9124C17.1357 20.3851 17.6917 20.0839 18.2214 20.2399C18.7509 20.3958 19.0532 20.9499 18.8965 21.4775L17.7968 25.1815C17.6681 25.6147 17.27 25.8951 16.8385 25.8951Z" fill="#130E0C"/>
<path d="M18.7902 19.3218C18.6964 19.3218 18.6008 19.3085 18.5063 19.2807C17.9768 19.1247 17.6746 18.5706 17.831 18.0432L17.9789 17.5452C18.1355 17.0179 18.6917 16.7167 19.2212 16.8727C19.7507 17.0286 20.0529 17.5827 19.8964 18.1102L19.7486 18.6081C19.6198 19.0412 19.2216 19.3218 18.7902 19.3218Z" fill="#130E0C"/>
</svg>
