<?xml version="1.0" encoding="utf-8"?>
<svg xmlns="http://www.w3.org/2000/svg" width="312px" height="47px">
<path d="M241.94,39.92c0.39,1.18,2.24,1.1,3.4,1.44c0.42,0.76,0.38,0.62,0.82,1.93h-15.45c0.61-1.01,0.58-1.2,0.99-1.93c1.1-0.53,2.6-0.49,2.84-1.92V15.27c2.37-0.45,4.93-0.7,7.41-1.14L241.94,39.92z M27.43,43.29l-0.68-1.93c-2.22-0.43-3.76-0.46-3.76-1.86V4.21h7.13c3.09,0,3.3,2.52,4.3,7.2h2.09L36.03,0.34H1.47L1,11.41h2.07c0.99-4.68,1.21-7.2,4.3-7.2h7.15V39.5c0,1.4-1.55,1.43-3.77,1.86l-0.68,1.93H27.43z M122.39,43.29H127l5.15-16.86l5.37,16.86h4.79l6.29-23.79c0.65-2.14,2.06-2.24,3.85-2.56l0.67-1.93h-11.64l0.68,1.93c1.58,0.3,2.36,0.48,2.36,1.26c0,0.41-0.08,0.86-0.23,1.44c-1.05,4.36-2.87,11.78-2.87,11.78l-4.9-16.41h-4.81l-5.06,16.3c-1.5-6.05-1.6-6.66-2.33-9.74c-0.24-1.05-0.5-2.07-0.5-2.74c0-0.97,0.51-1.53,2.53-1.88l0.69-1.93h-15.64l0.69,1.93c1.54,0.27,3.15,0.42,3.47,1.5L122.39,43.29z M238.37,11.86c2.24,0,4.05-1.81,4.05-4.05c0-2.23-1.81-4.05-4.05-4.05c-2.24,0-4.05,1.82-4.05,4.05C234.32,10.04,236.14,11.86,238.37,11.86z M37.17,43.63c2.21,0,4.01-1.79,4.01-4.01c0-2.22-1.8-4.01-4.01-4.01c-2.23,0-4.02,1.79-4.02,4.01C33.15,41.84,34.94,43.63,37.17,43.63z M84.8,29.13c-0.07-8.22,4.54-15.15,14.13-15.15c9.21,0,14.14,6.36,14.14,15.15c0,8.42-4.65,15.19-14.14,15.19C89.43,44.32,84.8,37.63,84.8,29.13z M104.79,29.13c0-8.4-1.48-12.4-5.87-12.4c-5.12,0-5.85,5.84-5.85,12.4c0,8.91,1.71,12.43,5.85,12.43C103.16,41.57,104.79,37.8,104.79,29.13z M88.42,44.4c-2.55,0-3.76-1.4-4.63-2.93c0,0-10.02-17.22-12.75-20.04c3.09-0.84,9.36-3.1,9.36-11.56c0-5.88-3.66-9.53-11.55-9.53H46.45l0.67,1.94c2.23,0.42,3.77,0.46,3.77,1.86V39.5c0,1.4-1.54,1.43-3.77,1.86l-0.67,1.93h17.35l-0.67-1.93c-2.23-0.43-3.77-0.46-3.77-1.86V4.3c0-0.72,0.22-1.02,0.92-1.02h3.87c6.11,0,7.47,3.05,7.47,7.99c0,6.15-3.56,8.95-8.76,8.95h-1.59c3.8,5.81,6.11,10.96,9.82,17.03c5.04,8.25,8.01,9.42,13.17,9.42c2.46,0,3.55-0.4,4.37-0.58L88.42,44.4z M220.98,19.28v-5.45l-6.22,1.72c0.58-0.95,1.28-3.05,1.28-5.45c0-6.03-3.51-9.75-11.54-9.75h-22.41l0.69,1.94c2.22,0.42,3.75,0.46,3.75,1.86V39.5c0,1.4-1.54,1.43-3.75,1.86l-0.69,1.93h17.36l-0.67-1.93c-2.23-0.43-3.77-0.46-3.77-1.86V4.32c0-0.69,0.19-1.04,0.92-1.04h3.65c6.29,0,7.67,3.01,7.67,7.95c0,5.75-3.16,8.99-8.61,8.99h-1.73l1.56,2.48c0.38,0.05,1.59,0.23,2.93,0.23c4.84,0,9.65-3.13,10.91-4.29c0.76,0.17,1.28,0.73,1.28,2.02V39.5c0,1.4-1.55,1.43-3.77,1.86l-0.68,1.93h16.29l-0.67-1.93c-2.22-0.43-3.76-0.46-3.76-1.86l-0.01-17.2c0.58-0.83,1.59-2.35,3.56-2.35c1.78,0,2.63,1.61,3.03,4.47h2.01l1.66-10.43C226.55,13.8,223,16.64,220.98,19.28z M168.78,40.62c2.82,0,5.13-1.39,5.88-1.85l0.22,2.02c-1.07,0.94-4.09,3.53-9.9,3.53c-9.61,0-13.5-7.24-13.5-15.17c0-5.01,1.47-15.16,13.46-15.16c10.63,0,12.42,9.61,12.63,12.86l-1.62,1.51h-16.57C159.37,35.41,162.63,40.62,168.78,40.62z M159.52,25.67h10.59c0-3.35-0.8-8.94-5.29-8.94C160.17,16.73,159.52,22.64,159.52,25.67z M289.25,40.62c2.82,0,5.14-1.39,5.87-1.85l0.22,2.02c-1.07,0.94-4.08,3.53-9.91,3.53c-9.6,0-13.48-7.24-13.48-15.17c0-5.01,1.48-15.16,13.47-15.16c10.62,0,12.4,9.61,12.62,12.86l-1.63,1.51h-16.57C279.83,35.41,283.1,40.62,289.25,40.62z M279.98,25.67h10.61c0-3.35-0.82-8.94-5.31-8.94C280.62,16.73,279.98,22.64,279.98,25.67z M260.93,44.31c5.33,0,8.63-2.75,9.58-3.52l-0.22-2.02c-0.85,0.53-3.45,1.85-5.97,1.85c-6.35,0-10.15-5.57-10.15-12.6c0-5.67,1.54-11.29,6.33-11.29c3.64,0,5.17,2.6,5.87,7.68h2.02l1.45-9.1c-0.36-0.11-3.68-1.32-8.85-1.32c-8.68,0-14.73,4.78-14.73,14.73C246.25,36.79,250.7,44.31,260.93,44.31z M311,13.69c0,3.03-2.45,5.48-5.48,5.48s-5.48-2.45-5.48-5.48s2.45-5.48,5.48-5.48S311,10.67,311,13.69z M305.52,8.97c-2.57,0-4.65,2.11-4.65,4.72s2.08,4.72,4.65,4.72s4.65-2.11,4.65-4.72S308.09,8.97,305.52,8.97z M308.27,16.5c-0.1-0.1-0.18-0.4-0.22-0.89c-0.04-0.4-0.06-0.62-0.07-0.67c-0.03-0.28-0.08-0.49-0.17-0.63c-0.13-0.25-0.32-0.42-0.59-0.52c0.61-0.3,0.91-0.77,0.91-1.43c0-0.63-0.27-1.1-0.8-1.41c-0.31-0.18-0.74-0.27-1.28-0.27h-2.95v6.03h0.97v-2.55h1.59c0.35,0,0.63,0.03,0.83,0.1c0.28,0.09,0.45,0.33,0.53,0.71c0.04,0.19,0.06,0.5,0.08,0.96c0.02,0.37,0.09,0.63,0.21,0.78h1.16L308.27,16.5z M306.72,13.21c-0.21,0.11-0.59,0.17-1.15,0.17h-1.49V11.5h1.72c0.35,0,0.62,0.03,0.8,0.09c0.37,0.12,0.55,0.4,0.55,0.82C307.15,12.79,307.01,13.05,306.72,13.21z"/>
</svg>