<svg width="216" height="45" viewBox="0 0 216 45" fill="none" xmlns="http://www.w3.org/2000/svg">
<g clip-path="url(#clip0_1_923)">
<path d="M14.566 6.28769V32.363H8.34121V6.28769H0V0.801392H22.9072V6.28769H14.566Z" fill="black"/>
<path d="M27.9493 32.4247V0.801392H48.989V6.28769H34.1741V13.685H46.7481V19.1713H34.1741V26.8767H48.989V32.363H27.9493V32.4247Z" fill="black"/>
<path d="M65.7337 32.6712C62.3101 32.6712 59.4467 31.5 57.1435 29.2192C55.7741 27.863 54.9026 26.2603 54.5291 24.4726C54.1556 22.6849 53.9689 20.0959 53.9689 16.6439C53.9689 13.1918 54.1556 10.5411 54.5291 8.81509C54.9026 6.96577 55.7118 5.42467 57.1435 4.06851C59.4467 1.78769 62.3723 0.616455 65.7337 0.616455C71.8962 0.616455 76.3781 4.1918 77.4986 10.6028H71.1493C70.4646 7.89043 68.7839 6.10276 65.796 6.10276C64.1153 6.10276 62.7458 6.65755 61.8121 7.76714C60.5049 9.1233 60.2559 10.5411 60.2559 16.7055C60.2559 22.8082 60.5049 24.226 61.8121 25.6439C62.7458 26.7534 64.1153 27.3082 65.796 27.3082C68.7839 27.3082 70.5268 25.5206 71.1493 22.8082H77.4986C76.4403 29.0959 71.834 32.6712 65.7337 32.6712Z" fill="black"/>
<path d="M99.9078 32.4247V19.1713H89.0767V32.4247H82.8519V0.801392H89.0767V13.7466H99.9078V0.801392H106.133V32.4247H99.9078Z" fill="black"/>
<path d="M132.463 32.4247L119.827 13.0069V32.4247H113.602V0.801392H119.142L131.779 20.1576V0.801392H138.003V32.4247H132.463Z" fill="black"/>
<path d="M145.411 32.4247V0.801392H151.636V32.4247H145.411Z" fill="black"/>
<path d="M169.75 32.6712C166.326 32.6712 163.463 31.5 161.16 29.2192C159.79 27.863 158.919 26.2603 158.545 24.4726C158.172 22.6849 157.985 20.0959 157.985 16.6439C157.985 13.1918 158.172 10.5411 158.545 8.81509C158.919 6.96577 159.728 5.42467 161.16 4.06851C163.463 1.78769 166.388 0.616455 169.75 0.616455C175.912 0.616455 180.394 4.1918 181.515 10.6028H175.165C174.481 7.89043 172.8 6.10276 169.812 6.10276C168.131 6.10276 166.762 6.65755 165.828 7.76714C164.521 9.1233 164.272 10.5411 164.272 16.7055C164.272 22.8082 164.521 24.226 165.828 25.6439C166.762 26.7534 168.131 27.3082 169.812 27.3082C172.8 27.3082 174.543 25.5206 175.165 22.8082H181.515C180.456 29.0959 175.85 32.6712 169.75 32.6712Z" fill="black"/>
<path d="M204.546 32.4247L202.679 26.8151H191.35L189.42 32.4247H182.946L194.525 0.801392H199.38L211.02 32.4247H204.546ZM197.139 10.1096L193.093 21.637H200.998L197.139 10.1096Z" fill="black"/>
<path d="M215.689 45.0001L213.448 38.8357H0V45.0001H215.689Z" fill="url(#paint0_linear_1_923)"/>
</g>
<defs>
<linearGradient id="paint0_linear_1_923" x1="0" y1="41.9179" x2="215.696" y2="41.9179" gradientUnits="userSpaceOnUse">
<stop stop-color="#00FFFF"/>
<stop offset="0.1702" stop-color="#39E1EC"/>
<stop offset="0.3969" stop-color="#7FBDD6"/>
<stop offset="0.6015" stop-color="#B6A1C4"/>
<stop offset="0.7765" stop-color="#DE8CB7"/>
<stop offset="0.9151" stop-color="#F680AF"/>
<stop offset="1" stop-color="#FF7BAC"/>
</linearGradient>
<clipPath id="clip0_1_923">
<rect width="216" height="45" fill="white"/>
</clipPath>
</defs>
</svg>
